<?xml version="1.0" standalone="no"?>
<!DOCTYPE svg PUBLIC "-//W3C//DTD SVG 20010904//EN"
 "http://www.w3.org/TR/2001/REC-SVG-20010904/DTD/svg10.dtd">
<svg version="1.0" xmlns="http://www.w3.org/2000/svg"
 width="488.000000pt" height="488.000000pt" viewBox="0 0 488.000000 488.000000"
 preserveAspectRatio="xMidYMid meet">
<metadata>
Created by potrace 1.14, written by Peter Selinger 2001-2017
</metadata>
<g transform="translate(0.000000,488.000000) scale(0.100000,-0.100000)"
fill="#000000" stroke="none">
<path d="M2463 4867 c-12 -6 -73 -42 -135 -78 -221 -130 -365 -213 -493 -286
-71 -40 -137 -77 -145 -83 -34 -21 -464 -271 -570 -330 -36 -21 -132 -76 -215
-125 -82 -48 -163 -95 -180 -104 -29 -17 -30 -21 -33 -92 -6 -138 29 -439 77
-664 57 -270 171 -599 286 -830 l70 -140 75 -9 c41 -4 226 -8 410 -9 266 0
358 3 445 16 61 10 144 22 185 28 200 29 386 73 645 152 120 37 312 119 482
207 455 235 790 566 941 932 33 79 51 196 52 330 l0 57 -87 49 c-49 28 -144
83 -213 123 -69 39 -152 88 -185 106 -33 19 -67 40 -75 48 -8 7 -37 24 -65 37
-46 22 -136 73 -410 233 -55 32 -167 97 -250 145 -423 243 -491 283 -499 291
-14 13 -88 11 -113 -4z"/>
<path d="M4077 4774 c67 -64 167 -180 224 -259 107 -149 202 -372 223 -525 30
-215 30 -231 -3 -455 -21 -148 -115 -358 -232 -522 -124 -174 -434 -454 -591
-534 -20 -10 -53 -30 -73 -43 -64 -44 -253 -136 -388 -190 -176 -71 -473 -163
-602 -186 -397 -74 -563 -90 -910 -90 -338 0 -591 25 -905 89 -182 38 -466
127 -654 205 -60 26 -111 44 -113 42 -14 -14 295 -178 472 -251 175 -73 430
-151 620 -190 165 -33 160 -31 201 -99 86 -141 360 -460 534 -622 169 -157
374 -317 543 -423 l98 -61 100 63 c55 34 156 105 225 157 69 52 146 111 172
130 77 57 266 245 411 409 75 84 141 160 146 169 6 9 42 62 80 117 116 164
234 360 310 515 28 57 42 71 106 115 374 251 623 564 732 920 46 149 48 438 3
598 -74 267 -207 481 -438 703 -94 90 -246 211 -323 258 -17 11 -4 -7 32 -40z"/>
</g>
</svg>
